<?xml version="1.0" encoding="UTF-8" standalone="no"?>
<svg
   width="156"
   height="106"
   viewBox="0 0 41.275 28.045833"
   version="1.1"
   id="svg1"
   xml:space="preserve"
   inkscape:version="1.3 (0e150ed6c4, 2023-07-21)"
   sodipodi:docname="logo-envet-sin-fondo.svg"
   xmlns:inkscape="http://www.inkscape.org/namespaces/inkscape"
   xmlns:sodipodi="http://sodipodi.sourceforge.net/DTD/sodipodi-0.dtd"
   xmlns="http://www.w3.org/2000/svg"
   xmlns:svg="http://www.w3.org/2000/svg"><sodipodi:namedview
     id="namedview1"
     pagecolor="#ffffff"
     bordercolor="#666666"
     borderopacity="1.0"
     inkscape:showpageshadow="2"
     inkscape:pageopacity="0.0"
     inkscape:pagecheckerboard="0"
     inkscape:deskcolor="#d1d1d1"
     inkscape:document-units="mm"
     inkscape:zoom="5.0487424"
     inkscape:cx="77.445028"
     inkscape:cy="43.476173"
     inkscape:window-width="1920"
     inkscape:window-height="1009"
     inkscape:window-x="1358"
     inkscape:window-y="-8"
     inkscape:window-maximized="1"
     inkscape:current-layer="g16" /><defs
     id="defs1" /><g
     inkscape:label="Capa 1"
     inkscape:groupmode="layer"
     id="layer1"><g
       id="g16"
       transform="translate(-28.927996,-33.749329)"><g
         id="g15"
         transform="matrix(0.60444601,0,0,0.60444601,-10.771795,-47.841415)"><path
           style="fill:#757573;fill-opacity:1;stroke:#757573;stroke-width:0.1;stroke-linecap:round;stroke-linejoin:round;stroke-dasharray:none;stroke-opacity:1"
           d="m 75.243869,159.78949 c 0.698685,1.85496 2.364156,3.58271 7.258346,7.99186 7.541199,6.79383 9.006792,7.86536 16.511376,6.93624 3.328819,-0.62339 6.949209,-0.49543 10.015909,-2.08975 1.21659,-0.66588 2.17483,-1.5508 2.95107,-2.59002 1.42225,-1.9041 2.21098,-4.33228 2.90342,-6.86821 0.3409,-1.24846 0.61094,-2.51248 0.85214,-3.78277 0.26822,-1.41262 0.50077,-2.83299 0.75541,-4.24832 0.55046,-3.05953 0.89256,-6.06569 0.0639,-8.71852 -0.62745,-2.00869 -1.93142,-3.81574 -4.3417,-5.29302 -2.94088,-1.80249 -5.29633,-2.13679 -8.67276,-2.57085 -3.817317,-0.49074 -7.608088,-0.61729 -11.311036,0.16337 -8.850736,1.86591 -16.194033,7.87059 -17.454981,15.52709 -0.354033,1.86589 -0.164705,3.75766 0.468876,5.5429 z"
           id="path3"
           sodipodi:nodetypes="sssssssssssssss" /><path
           style="fill:#efc0ab;fill-opacity:1;stroke:#efc0ab;stroke-width:0.1;stroke-linecap:round;stroke-linejoin:round;stroke-dasharray:none;stroke-opacity:1"
           d="m 88.925445,173.06728 c 0.139517,0.0914 0.38243,0.25754 0.519428,0.34137 2.784643,1.70396 5.113885,1.86992 9.632849,1.31044 3.361038,-0.41612 6.949238,-0.49543 10.015958,-2.08975 1.2166,-0.66588 2.17484,-1.5508 2.95109,-2.59002 1.42226,-1.9041 2.21098,-4.33228 2.90343,-6.86821 0.33588,-1.23008 0.64439,-2.69107 0.84147,-3.72667 0.008,-0.044 -0.39131,-0.67788 -0.49305,-0.83803 -3.29811,-5.19178 -8.5588,-5.89605 -10.06481,-5.07082 -5.740561,3.03284 -7.681004,6.60038 -9.869586,9.38964 -2.771091,3.53165 -5.234167,6.1811 -6.09136,8.22894 -0.308738,0.73758 -0.343647,1.31851 -0.345419,1.91311 z"
           id="path3-3"
           sodipodi:nodetypes="cssssssscssc" /><path
           style="fill:#ffe3d8;fill-opacity:1;stroke:#ffe3d8;stroke-width:0.1;stroke-linecap:round;stroke-linejoin:round;stroke-dasharray:none;stroke-opacity:1"
           d="m 110.6901,178.96992 c -4.95686,-0.42443 -10.28204,2.74965 -13.952894,2.27962 -5.972883,-0.76479 -7.575594,-5.09361 -7.790843,-7.08096 -0.07217,-0.66634 -0.05688,-1.00055 -0.03104,-1.11541 0.0245,-0.10889 0.28246,0.20121 0.338359,0.23655 2.870762,1.81497 5.202047,2.00162 9.824024,1.42938 3.361034,-0.41612 6.949234,-0.49543 10.015954,-2.08975 1.2166,-0.66588 2.17484,-1.5508 2.95108,-2.59002 1.42226,-1.9041 2.21099,-4.33228 2.90343,-6.86821 0.33783,-1.23724 0.60608,-2.48977 0.84563,-3.74852 0.78981,1.18725 1.65808,2.24355 2.53116,3.18853 2.52809,2.73629 5.4864,5.58444 6.67167,9.11913 0.47675,1.42176 0.96779,4.63109 -0.78936,6.50127 -2.79399,2.97371 -9.86099,1.05145 -13.51717,0.73839 z"
           id="path3-1"
           sodipodi:nodetypes="ssssssssscssss" /><path
           style="fill:#ffe3d8;stroke:#ffe3d8;stroke-width:0.1;stroke-linecap:round;stroke-linejoin:round;stroke-dasharray:none;stroke-opacity:1"
           d="m 110.44687,140.81466 c 0.72673,-2.52537 1.83887,-4.44681 3.86569,-4.93502 1.0299,-0.24807 3.89127,-0.41947 5.56617,2.49661 0.61127,1.06426 0.91902,2.35616 0.99253,3.82374 0.0701,1.40054 0.0276,5.3971 -2.51727,7.38497 -1.04099,0.81315 -2.14803,0.79244 -3.25653,0.75321 z"
           id="path4"
           sodipodi:nodetypes="csssscc" /><path
           style="fill:#efc0ab;stroke:#efc0ab;stroke-width:0.1;stroke-linecap:round;stroke-linejoin:round;stroke-dasharray:none;stroke-opacity:1"
           d="m 110.61362,140.25881 c 4.66971,2.16125 6.48049,5.45364 6.45709,9.9682 -0.9767,0.18534 -2.6392,0.29521 -4.04104,-0.34169 -1.20057,-0.54545 -1.74533,-2.0245 -2.2095,-3.24756 -0.21398,-0.56383 -0.3556,-1.16101 -0.45167,-1.78144 -0.21499,-1.38832 -0.18676,-2.17014 -0.10351,-2.97544 0.0558,-0.53945 0.14841,-1.07721 0.34863,-1.62207 z"
           id="path5"
           sodipodi:nodetypes="ccssssc" /><path
           style="fill:#ffe3d8;stroke:#ffe3d8;stroke-width:0.1;stroke-linecap:round;stroke-linejoin:round;stroke-dasharray:none;stroke-opacity:1"
           d="m 95.772495,139.18417 c 0.142189,-0.80003 0.752729,-3.25374 2.937112,-3.67403 1.757193,-0.3381 3.150183,0.96532 3.763513,1.67747 0.70177,0.81485 1.56044,2.75622 1.58348,3.00968 l -3.97629,0.39503 z"
           id="path6"
           sodipodi:nodetypes="cssccc" /><path
           style="fill:#efc0ab;stroke:#efc0ab;stroke-width:0.1;stroke-linecap:round;stroke-linejoin:round;stroke-dasharray:none;stroke-opacity:1"
           d="m 96.020508,138.21044 c 2.443956,-0.13846 4.875692,0.0287 7.302242,0.32524 0.49978,0.93259 0.8591,1.86518 1.18581,2.79777 0.6977,2.3493 1.27374,4.68789 -0.93727,6.78121 -0.96462,1.03166 -2.28457,1.25876 -3.645926,1.08289 -1.436546,-0.18558 -2.503619,-0.96897 -3.294157,-2.19978 -0.77923,-1.16251 -1.022185,-2.56343 -1.155583,-3.93386 -0.159853,-1.83513 0.112444,-3.39525 0.544881,-4.85347 z"
           id="path7"
           sodipodi:nodetypes="cccsssscc" /><path
           style="fill:#efc0ab;stroke:#efc0ab;stroke-width:0.1;stroke-linecap:round;stroke-linejoin:round;stroke-dasharray:none;stroke-opacity:1"
           d="m 82.74714,153.56209 c 1.044457,-2.37066 2.14638,-4.65645 4.719231,-4.77005 2.332304,-0.10299 4.429581,5.24683 4.598769,5.76609 0.847937,2.6024 0.612698,7.07679 -0.990178,7.71592 -1.76086,0.56518 -3.690569,0.22775 -5.290387,-0.62895 -1.54588,-0.87266 -2.199839,-1.98689 -3.204189,-3.00623 z"
           id="path8"
           sodipodi:nodetypes="csssscc" /><path
           style="fill:#ffe3d8;stroke:#ffe3d8;stroke-width:0.1;stroke-linecap:round;stroke-linejoin:round;stroke-dasharray:none;stroke-opacity:1"
           d="m 124.75198,149.01586 c 2.67746,0.27795 4.85236,1.04451 6.10046,2.71212 1.4016,1.87269 1.21282,4.19044 0.78319,5.5675 -0.3797,1.21704 -1.10226,2.08211 -2.20838,2.55313 -1.86586,0.79455 -3.77258,0.17014 -5.64478,-0.22058 z"
           id="path9"
           sodipodi:nodetypes="cssscc" /><path
           style="fill:none;fill-opacity:1;stroke:#b08778;stroke-width:0.4;stroke-linecap:round;stroke-linejoin:round;stroke-dasharray:none;stroke-opacity:1"
           d="m 94.272653,161.74441 c 1.808569,-1.76936 4.167582,-3.87176 7.113897,-6.3295 1.80067,-1.43988 3.43162,-2.04906 4.95868,-2.14967 3.91501,-0.10714 5.14817,1.22318 7.32166,3.98702 1.6179,2.06257 3.13064,4.09563 4.87214,5.71727 2.52899,2.35493 5.32863,5.63301 5.04335,9.05292 -0.20488,2.45601 -1.03953,3.88964 -2.59012,4.78315 -4.18889,2.4138 -9.44972,-0.0864 -14.16149,1.01593 -2.2556,0.52768 -4.71127,1.72262 -7.574799,1.89419 -2.336802,0.14001 -3.627246,-0.25456 -5.288965,-1.18669 -2.727294,-1.52985 -4.280242,-3.88079 -4.496318,-7.16645 -0.268187,-4.07806 0.707377,-5.61234 4.801965,-9.61815 z"
           id="path10"
           sodipodi:nodetypes="scsssssssssss" /><path
           style="fill:none;stroke:#b08778;stroke-width:0.4;stroke-linecap:round;stroke-linejoin:round;stroke-dasharray:none;stroke-opacity:1"
           d="m 81.598388,153.58062 c 0.535061,-2.04083 0.804493,-4.22525 3.094217,-5.31761 1.750986,-0.5702 3.774048,3.26722 5.762284,6.54047 0.404181,3.33939 -0.326626,6.23432 -6.911036,6.83692 l -2.297501,-2.50131 z"
           id="path11"
           sodipodi:nodetypes="cccccc" /><path
           style="fill:none;stroke:#b08778;stroke-width:0.4;stroke-linecap:round;stroke-linejoin:round;stroke-dasharray:none;stroke-opacity:1"
           d="m 92.920696,140.64121 c 0.305767,-1.62212 0.899814,-3.0007 1.920041,-4.01923 1.312717,-1.31054 2.917724,-1.40223 4.490957,-0.5164 2.784006,1.56759 5.772006,7.56202 2.498396,10.43325 -0.69743,0.61171 -1.67345,1.02256 -2.634356,1.22068 -2.643737,0.5451 -4.1217,0.35436 -5.134907,-0.8886 -1.479326,-1.81187 -1.527207,-4.04289 -1.140131,-6.2297 z"
           id="path12"
           sodipodi:nodetypes="sssssss" /><path
           style="fill:none;stroke:#b08778;stroke-width:0.4;stroke-linecap:round;stroke-linejoin:round;stroke-dasharray:none;stroke-opacity:1"
           d="m 109.09708,145.71374 c 0.57524,1.88759 3.14093,5.69283 6.32396,3.10296 1.09568,-0.89151 3.72602,-3.87428 3.07411,-7.39534 -0.62112,-3.35477 -3.72491,-5.83022 -5.54393,-5.83534 -4.10957,-0.0116 -4.2483,8.83435 -3.85414,10.12772 z"
           id="path13"
           sodipodi:nodetypes="sssss" /><path
           style="fill:none;stroke:#b08778;stroke-width:0.4;stroke-linecap:round;stroke-linejoin:round;stroke-dasharray:none;stroke-opacity:1"
           d="m 125.24984,148.85864 c 2.13245,0.66662 5.29065,2.37842 5.05163,5.54084 -0.12687,1.67872 -1.11428,3.62475 -3.4138,4.66361 -0.98788,0.4463 -2.10345,0.67798 -3.34102,0.69596 l -0.8909,-6.02667 z"
           id="path14"
           sodipodi:nodetypes="cssccc" /><g
           id="g14"><path
             style="fill:#0a0a0a;fill-opacity:1;stroke:#0a0a0a;stroke-width:0.1;stroke-linecap:round;stroke-linejoin:round;stroke-dasharray:none;stroke-opacity:1"
             d="m 78.649221,146.34728 c 0.341375,-0.0251 0.623355,-0.33498 0.214247,-0.51423 -2.419897,-0.54524 -4.075577,-1.10407 -5.163688,-1.24294 -0.681956,-0.087 -1.2484,0.0826 -1.700154,0.33348 -1.372138,0.78193 -1.91131,2.3856 -2.288633,3.8357 -0.494039,1.89866 -0.484341,3.73919 -0.61629,5.59607 -0.118812,1.672 -0.21443,1.90662 -0.540587,2.07514 -0.931112,0.22649 -1.67993,0.55242 -2.324647,0.93512 -0.450566,0.25507 -0.334453,0.3623 0.01514,0.40863 0.995373,-0.13611 2.645981,-0.78847 2.606212,-0.10902 0.173972,5.99371 1.179897,10.25419 3.720251,11.31794 3.212581,1.09502 5.333462,-1.19422 7.597693,-3.03908 0.592212,-0.17864 0.364205,0.83577 0.47158,1.36235 0.748917,0.12738 1.497835,0.1406 2.246752,-0.0281 1.090394,-4.14465 1.723674,-8.67328 3.979501,-11.83897 0.789292,-1.10764 1.171722,-1.30634 1.452002,-1.27823 0.702053,0.0704 0.791762,1.89942 0.767067,3.6075 -0.04143,2.86537 -0.192464,3.47342 -0.215089,5.00544 -0.01869,1.26554 0.07518,2.37937 0.382604,3.20537 0.328202,0.98364 1.135215,1.42496 2.107936,1.60161 3.458117,-0.12028 4.408846,-5.38707 5.391576,-7.92476 -0.201284,-0.62601 -0.51681,-0.50944 -0.812167,-0.52397 -0.760886,1.3359 -2.633403,8.25587 -4.411333,7.42596 -0.55775,-0.47573 -0.664246,-2.33884 -0.684707,-3.02253 -0.05697,-1.90368 0.235688,-4.04868 0.215208,-6.05465 -0.01534,-1.50242 -0.104715,-3.46712 -1.477737,-4.10175 -1.468628,-0.62618 -2.660095,0.23452 -3.632917,1.24182 -0.451485,0.48862 -0.839491,1.03208 -1.118438,1.64382 -0.541283,1.18706 -1.053038,2.52139 -1.493627,2.42326 -0.03277,-1.95296 -0.08721,-3.92759 -0.169361,-5.92994 -0.737627,-0.12984 -1.475254,-0.0832 -2.212881,-0.0185 -0.681949,4.01746 -0.893774,7.85863 -0.785968,11.57993 -0.642709,0.67682 -1.285981,1.37271 -1.964345,1.93108 -3.177576,2.61546 -5.800639,4.92494 -5.307456,-8.50486 0.02221,-0.60488 1.928422,-0.11654 5.851602,-0.51441 0.693117,-0.0175 0.817113,-0.25863 0.815452,-0.54909 0.0036,-0.29428 -0.05062,-0.26944 -0.313712,-0.2169 -0.461808,0.09 -1.236062,0.22082 -2.095975,0.19643 -1.329845,-0.0377 -2.805993,-0.0452 -3.67728,-0.17665 -0.784875,-0.059 -0.760428,-0.38468 -0.760485,-1.04692 0.0044,-1.63739 0.103474,-3.50742 0.184989,-5.10428 0.136841,-2.68069 0.195728,-4.9559 1.29385,-4.87764 1.570377,0.3541 3.091642,0.67546 4.453814,0.89076 z"
             id="path1"
             sodipodi:nodetypes="ccssssccccccccssssssccssssssccccsscssssssccc" /><path
             style="fill:#0a0a0a;fill-opacity:1;stroke:#0a0a0a;stroke-width:0.1;stroke-linecap:round;stroke-linejoin:round;stroke-dasharray:none;stroke-opacity:1"
             d="m 97.224269,148.31221 c -0.974592,5.90942 -0.03878,15.01293 3.039081,19.91119 0.93785,0.33771 1.40573,0.11145 1.86012,-0.13099 0.75292,-2.06911 1.30292,-4.33079 1.91347,-6.66279 1.52755,-5.83445 0.50088,-1.54798 1.55588,-5.8522 0.0855,-0.34897 0.15939,-0.6783 0.27877,-0.93321 0.0261,-0.0557 0.10196,-0.0144 0.19371,0.07 0.31238,0.24769 0.29552,0.61488 0.36694,0.98111 0.80097,3.85989 3.71347,4.3922 5.20186,4.40312 2.33395,0.0169 6.11555,-1.39898 6.89177,-4.48912 0.50417,-2.00709 -0.65751,-4.06996 -2.79382,-3.89553 -2.04623,0.1671 -3.44288,3.05951 -3.7914,4.01714 -1.14289,3.14035 -0.47519,8.08602 1.51343,9.87051 0.50855,0.45635 2.65136,1.56439 4.4455,0.60865 0.70747,-0.37687 2.82068,-3.48313 3.97789,-4.87701 0.2791,2.0079 0.61202,3.83192 1.08122,5.19029 0.57591,1.66725 1.15753,2.39055 2.82734,2.67646 0.65196,0.11164 1.26406,0.0557 1.82654,-0.20838 0.63396,-0.29768 1.35179,-1.10014 1.92999,-2.1226 0.68381,-1.19686 0.99269,-2.55507 1.39314,-3.86282 l 0.89737,-2.9305 c -0.38709,-0.44327 -0.73065,-0.51661 -1.04796,-0.36679 -1.16148,3.31636 -2.32297,6.67382 -3.48445,8.35747 -0.31466,0.28949 -0.57192,0.39857 -0.78943,0.38272 -0.91906,-0.28501 -0.98633,-1.68805 -1.15427,-2.49786 -1.01104,-5.02876 0.17906,-10.47024 0.24076,-15.70014 0.0238,-0.20443 0.0683,-0.40628 0.36679,-0.57638 3.11912,-0.13966 6.03274,-0.2891 7.70249,-0.49778 0.0965,-0.24315 0.1971,-0.48513 -0.1834,-0.86456 -2.36937,-0.0448 -4.77534,0.13012 -7.17851,0.28818 -0.16304,-0.026 -0.26745,-0.0791 -0.33651,-0.14848 -0.22156,-0.32353 -0.15263,-0.76472 -0.15794,-1.14308 -6.1e-4,-0.35079 0.0168,-0.77387 0.083,-1.39159 -0.37826,-0.32921 -1.97029,-0.74348 -2.55209,0.21446 -0.36882,0.68107 -0.53222,1.86563 -0.83524,2.67829 -0.99243,0.0989 -1.93271,0.17165 -2.85569,0.23578 -0.2049,0.51733 -0.15215,0.80044 0.0262,0.96937 0.78187,0.1836 1.64128,0.0138 2.40731,0.1181 0.19953,0.0272 0.179,0.2843 0.13723,0.50146 -0.41832,3.01595 -0.43527,6.0319 -0.34383,9.04785 -1.22865,1.60255 -2.42364,3.19389 -3.72172,4.81958 -0.52794,0.72171 -1.17993,1.58203 -2.13728,0.99233 -0.57442,-0.45194 -1.00411,-1.53737 -1.30059,-3.2564 -0.22038,-1.27778 -0.25469,-2.36512 -0.20128,-3.34141 0.0576,-1.052 0.19237,-1.95772 0.39437,-2.84085 0.12218,-0.53413 0.60761,-2.53781 1.07363,-2.81296 0.1584,-0.0935 0.36556,-0.0512 0.66811,0.25681 0.51259,0.73868 0.23016,1.70433 0.0273,2.5132 -0.49572,1.77327 -1.62251,2.58902 -3.36393,2.99115 -2.12506,0.49072 -3.54456,0.0848 -4.44256,-2.27406 -0.45043,-1.18317 -0.76073,-3.00106 -0.80285,-6.03363 l 0.11799,-3.08553 c -0.51871,-0.20813 -1.03743,-0.28342 -1.55614,0 -1.86042,5.16053 -3.34373,11.20096 -4.92777,17.00636 -0.46611,2.30824 -1.33757,-9.30047 -2.074852,-16.3024 -1.011753,-0.66549 -1.675161,-0.2279 -2.405589,-0.003 z"
             id="path2"
             sodipodi:nodetypes="cccssssssssssscssssccccsscccccsscscccsccsssssscsssccccccc" /></g></g></g></g></svg>
