<?xml version="1.0" encoding="UTF-8" standalone="no"?>
<svg
   width="156"
   height="106"
   viewBox="0 0 41.275 28.045833"
   version="1.1"
   id="svg1"
   xml:space="preserve"
   inkscape:version="1.3 (0e150ed, 2023-07-21)"
   sodipodi:docname="envet-logo-outline.svg"
   xmlns:inkscape="http://www.inkscape.org/namespaces/inkscape"
   xmlns:sodipodi="http://sodipodi.sourceforge.net/DTD/sodipodi-0.dtd"
   xmlns="http://www.w3.org/2000/svg"
   xmlns:svg="http://www.w3.org/2000/svg"><sodipodi:namedview
     id="namedview1"
     pagecolor="#ffffff"
     bordercolor="#666666"
     borderopacity="1.0"
     inkscape:showpageshadow="2"
     inkscape:pageopacity="0.0"
     inkscape:pagecheckerboard="0"
     inkscape:deskcolor="#d1d1d1"
     inkscape:document-units="mm"
     inkscape:zoom="4.1943814"
     inkscape:cx="140.06833"
     inkscape:cy="59.722753"
     inkscape:window-width="1440"
     inkscape:window-height="772"
     inkscape:window-x="0"
     inkscape:window-y="25"
     inkscape:window-maximized="0"
     inkscape:current-layer="layer1" /><defs
     id="defs1" /><g
     inkscape:label="Capa 1"
     inkscape:groupmode="layer"
     id="layer1"><g
       id="g16"
       transform="translate(-28.927996,-33.749329)"
       style="stroke:#fee9e0;stroke-opacity:1"><path
         style="fill:none;fill-opacity:1;stroke:#fee9e0;stroke-width:0.5;stroke-linecap:round;stroke-linejoin:round;stroke-dasharray:none;stroke-opacity:1"
         d="m 46.210934,49.924348 c 1.093182,-1.069482 2.519078,-2.34027 4.299967,-3.825841 1.088407,-0.870329 2.074229,-1.238546 2.997254,-1.299359 2.366412,-0.06476 3.111791,0.739346 4.425548,2.409938 0.977933,1.246712 1.892303,2.475587 2.944946,3.455781 1.528638,1.423428 3.220869,3.404851 3.048432,5.472002 -0.123838,1.484525 -0.628339,2.351077 -1.565587,2.891155 -2.531958,1.459012 -5.711846,-0.05222 -8.559856,0.614075 -1.363389,0.318954 -2.847709,1.041231 -4.578557,1.144936 -1.412471,0.08463 -2.192475,-0.153868 -3.196894,-0.71729 -1.648502,-0.924712 -2.587175,-2.345728 -2.717782,-4.331732 -0.162104,-2.464967 0.427572,-3.392357 2.902529,-5.813653 z"
         id="path10"
         sodipodi:nodetypes="scsssssssssss" /><path
         style="fill:none;stroke:#fee9e0;stroke-width:0.5;stroke-linecap:round;stroke-linejoin:round;stroke-dasharray:none;stroke-opacity:1"
         d="m 40.420312,41.77557 c 0.61496,-0.200259 1.285441,0.498928 1.975054,1.508052 0.812855,1.195537 1.700835,2.26919 1.537209,3.744926 -0.140638,1.268404 -0.908042,2.291364 -3.232279,2.704652 -2.009718,0.180342 -2.378459,-1.140452 -2.277648,-2.732248 0.01074,-0.215862 0.02098,-0.436587 0.03342,-0.659828 0.09688,-1.738645 0.327093,-3.629944 1.96424,-4.565554 z"
         id="path11"
         sodipodi:nodetypes="cssccscc" /><path
         style="fill:none;stroke:#fee9e0;stroke-width:0.5;stroke-linecap:round;stroke-linejoin:round;stroke-dasharray:none;stroke-opacity:1"
         d="m 45.393749,37.168603 c 0.18482,-0.980484 0.543889,-1.813761 1.160561,-2.429407 0.793467,-0.792151 1.763607,-0.847573 2.714541,-0.312136 1.682781,0.947523 3.488866,4.570833 1.510146,6.306336 -0.421559,0.369746 -1.011511,0.618082 -1.592326,0.737835 -1.597997,0.329484 -2.491345,0.214192 -3.103774,-0.53711 -0.894173,-1.095178 -0.923115,-2.443709 -0.689148,-3.765518 z"
         id="path12"
         sodipodi:nodetypes="sssssss" /><path
         style="fill:none;stroke:#fee9e0;stroke-width:0.5;stroke-linecap:round;stroke-linejoin:round;stroke-dasharray:none;stroke-opacity:1"
         d="m 55.1715,40.234674 c 0.347701,1.140946 1.898522,3.441008 3.822492,1.875572 0.66228,-0.53887 2.252178,-2.341794 1.858134,-4.470084 -0.375434,-2.027778 -2.251507,-3.524053 -3.351007,-3.527148 -2.484013,-0.007 -2.567868,5.339887 -2.329619,6.12166 z"
         id="path13"
         sodipodi:nodetypes="sssss" /><path
         style="fill:none;stroke:#fee9e0;stroke-width:0.5;stroke-linecap:round;stroke-linejoin:round;stroke-dasharray:none;stroke-opacity:1"
         d="m 65.982097,42.563127 c 1.15967,0.327989 2.114468,1.490614 2.006312,2.921608 -0.141963,1.878333 -2.2973,3.825626 -4.208641,2.88585 -0.507308,-0.293804 -0.619358,-0.728521 -0.602105,-1.273234 0.03743,-1.181805 0.201358,-2.336271 0.648442,-3.431949 0.519261,-1.193669 1.149978,-1.386807 2.155992,-1.102276 z"
         id="path14"
         sodipodi:nodetypes="sssssss" /></g></g></svg>
